<svg xmlns="http://www.w3.org/2000/svg" width="600" height="288">
  <rect width="600" height="288" fill="#ffffff" rx="8"/>
  <text x="16" y="36" font-family="sans-serif" font-size="14"
        font-weight="bold" fill="#013f54">All-time Commits</text>
  <text x="120" y="76" text-anchor="end" font-family="monospace" font-size="12" fill="#667672">TeamSeedBiomed</text><rect x="128" y="60" width="416" height="22" fill="#059598" rx="3"/><text x="550" y="76" font-family="monospace" font-size="12" fill="#013f54">268</text>
  <text x="120" y="112" text-anchor="end" font-family="monospace" font-size="12" fill="#667672">youwillfindinfinity</text><rect x="128" y="96" width="213" height="22" fill="#059598" rx="3"/><text x="347" y="112" font-family="monospace" font-size="12" fill="#013f54">137</text>
  <text x="120" y="148" text-anchor="end" font-family="monospace" font-size="12" fill="#667672">shivamkgw</text><rect x="128" y="132" width="23" height="22" fill="#059598" rx="3"/><text x="157" y="148" font-family="monospace" font-size="12" fill="#013f54">15</text>
  <text x="120" y="184" text-anchor="end" font-family="monospace" font-size="12" fill="#667672">tukynl</text><rect x="128" y="168" width="8" height="22" fill="#059598" rx="3"/><text x="142" y="184" font-family="monospace" font-size="12" fill="#013f54">5</text>
  <text x="120" y="220" text-anchor="end" font-family="monospace" font-size="12" fill="#667672">SheratonMV</text><rect x="128" y="204" width="3" height="22" fill="#059598" rx="3"/><text x="137" y="220" font-family="monospace" font-size="12" fill="#013f54">2</text>
  <text x="120" y="256" text-anchor="end" font-family="monospace" font-size="12" fill="#667672">MatthiasL533</text><rect x="128" y="240" width="2" height="22" fill="#059598" rx="3"/><text x="136" y="256" font-family="monospace" font-size="12" fill="#013f54">1</text>
  <text x="16" y="278" font-family="sans-serif" font-size="10"
        fill="#bbbbbb">Updated: 2026-04-20 05:41 UTC</text>
</svg>